<?xml version="1.0" encoding="UTF-8" standalone="no"?>
<svg
   xmlns:dc="http://purl.org/dc/elements/1.1/"
   xmlns:cc="http://creativecommons.org/ns#"
   xmlns:rdf="http://www.w3.org/1999/02/22-rdf-syntax-ns#"
   xmlns:svg="http://www.w3.org/2000/svg"
   xmlns="http://www.w3.org/2000/svg"
   viewBox="0 0 377.94666 377.94666"
   height="377.94666"
   width="377.94666"
   xml:space="preserve"
   id="svg2"
   version="1.1"><metadata
     id="metadata8"><rdf:RDF><cc:Work
         rdf:about=""><dc:format>image/svg+xml</dc:format><dc:type
           rdf:resource="http://purl.org/dc/dcmitype/StillImage" /></cc:Work></rdf:RDF></metadata><defs
     id="defs6"><clipPath
       id="clipPath18"
       clipPathUnits="userSpaceOnUse"><path
         id="path16"
         d="M 0,283.46 H 283.46 V 0 H 0 Z" /></clipPath></defs><g
     transform="matrix(1.3333333,0,0,-1.3333333,0,377.94667)"
     id="g10"><g
       id="g12"><g
         clip-path="url(#clipPath18)"
         id="g14"><g
           transform="translate(283.4646,7.3655)"
           id="g20"><path
             id="path22"
             style="fill:#ffffff;fill-opacity:1;fill-rule:nonzero;stroke:none"
             d="m 0,0 v 0 c 0,4.07 -3.3,7.37 -7.37,7.37 h -268.724 c -4.071,0 -7.371,-3.3 -7.371,-7.37 v 0 c 0,-4.07 3.3,-7.37 7.371,-7.37 H -7.37 C -3.3,-7.37 0,-4.07 0,0 m 0,268.724 v 0 c 0,4.071 -3.3,7.37 -7.37,7.37 h -268.724 c -4.071,0 -7.371,-3.299 -7.371,-7.37 v 0 c 0,-4.07 3.3,-7.37 7.371,-7.37 H -7.37 c 4.07,0 7.37,3.3 7.37,7.37 M -128.834,54.992 h -25.795 c -1.096,0 -1.985,0.889 -1.985,1.984 v 90.992 c 0,1.096 0.889,1.985 1.985,1.985 h 25.795 c 1.096,0 1.984,-0.889 1.984,-1.985 V 56.976 c 0,-1.095 -0.888,-1.984 -1.984,-1.984 m 14.74,38.258 v 54.718 c 0,1.096 0.888,1.985 1.984,1.985 h 14.093 c 6.024,0 11.41,-3.598 13.721,-9.166 5.057,-12.149 7.62,-25.038 7.62,-38.314 0,-3.165 -0.151,-6.307 -0.443,-9.422 -0.095,-1.015 -0.959,-1.785 -1.978,-1.785 h -33.013 c -1.096,0 -1.984,0.888 -1.984,1.984 m -57.26,-1.984 h -33.013 c -1.019,0 -1.883,0.77 -1.978,1.785 -0.292,3.115 -0.443,6.257 -0.443,9.422 0,13.276 2.563,26.165 7.621,38.314 2.31,5.568 7.696,9.166 13.72,9.166 h 14.093 c 1.096,0 1.984,-0.889 1.984,-1.985 V 93.25 c 0,-1.096 -0.888,-1.984 -1.984,-1.984 m 121.466,126.458 -0.561,3.182 c -0.308,1.742 -1.969,2.905 -3.711,2.598 l -66.635,-11.749 -0.295,1.675 c -0.762,4.317 -4.879,7.199 -9.195,6.438 l -26.241,-4.627 c -4.317,-0.761 -7.199,-4.878 -6.438,-9.195 l 0.295,-1.675 -66.635,-11.749 c -1.742,-0.308 -2.905,-1.969 -2.598,-3.711 l 0.559,-3.173 c 0.308,-1.747 1.975,-2.914 3.722,-2.606 l 81.07,14.295 v -34.719 h -38.896 c -11.198,0 -21.209,-6.685 -25.5,-17.025 -5.704,-13.706 -8.596,-28.243 -8.596,-43.21 0,-14.969 2.892,-29.507 8.594,-43.204 4.293,-10.347 14.303,-17.033 25.502,-17.033 h 87.43 c 11.199,0 21.21,6.687 25.498,17.027 5.705,13.701 8.598,28.239 8.598,43.21 0,14.969 -2.893,29.507 -8.594,43.202 -4.293,10.347 -14.303,17.033 -25.502,17.033 h -38.896 v 36.418 l 84.427,14.887 c 1.742,0.307 2.905,1.968 2.598,3.711" /></g></g></g></g></svg>