<?xml version="1.0" encoding="UTF-8" standalone="no"?>
<svg
   xmlns:dc="http://purl.org/dc/elements/1.1/"
   xmlns:cc="http://creativecommons.org/ns#"
   xmlns:rdf="http://www.w3.org/1999/02/22-rdf-syntax-ns#"
   xmlns:svg="http://www.w3.org/2000/svg"
   xmlns="http://www.w3.org/2000/svg"
   viewBox="0 0 377.94666 377.94666"
   height="377.94666"
   width="377.94666"
   xml:space="preserve"
   id="svg2"
   version="1.1"><metadata
     id="metadata8"><rdf:RDF><cc:Work
         rdf:about=""><dc:format>image/svg+xml</dc:format><dc:type
           rdf:resource="http://purl.org/dc/dcmitype/StillImage" /></cc:Work></rdf:RDF></metadata><defs
     id="defs6"><clipPath
       id="clipPath18"
       clipPathUnits="userSpaceOnUse"><path
         id="path16"
         d="M 0,283.46 H 283.46 V 0 H 0 Z" /></clipPath></defs><g
     transform="matrix(1.3333333,0,0,-1.3333333,0,377.94667)"
     id="g10"><g
       id="g12"><g
         clip-path="url(#clipPath18)"
         id="g14"><g
           transform="translate(235.6406,54.2691)"
           id="g20"><path
             id="path22"
             style="fill:#ffffff;fill-opacity:1;fill-rule:nonzero;stroke:none"
             d="m 0,0 c -6.709,1.783 -14.075,1.482 -20.572,-0.888 l -1.527,-0.55 c -0.556,-0.193 -1.117,-0.372 -1.679,-0.545 -1.126,-0.339 -2.264,-0.635 -3.41,-0.887 -2.293,-0.51 -4.623,-0.829 -6.957,-0.985 -4.663,-0.297 -9.376,0.077 -13.947,1.18 -1.142,0.275 -2.276,0.589 -3.394,0.953 -0.559,0.185 -1.117,0.373 -1.669,0.578 l -0.698,0.254 -0.613,0.216 c -1.638,0.563 -3.327,0.99 -5.041,1.294 -3.425,0.602 -6.979,0.688 -10.437,0.251 -1.731,-0.215 -3.439,-0.565 -5.108,-1.042 -0.834,-0.238 -1.66,-0.505 -2.47,-0.81 -0.724,-0.272 -1.477,-0.606 -2.33,-1.012 -1.707,-0.806 -3.617,-1.827 -5.898,-2.742 -2.248,-0.908 -4.989,-1.746 -8.158,-1.772 -3.17,0.026 -5.911,0.864 -8.159,1.772 -2.281,0.915 -4.19,1.936 -5.898,2.742 -0.853,0.406 -1.605,0.74 -2.329,1.012 -0.811,0.305 -1.636,0.572 -2.471,0.81 -1.668,0.477 -3.377,0.827 -5.108,1.042 -3.458,0.437 -7.012,0.351 -10.436,-0.251 -1.714,-0.304 -3.403,-0.731 -5.042,-1.294 l -0.613,-0.216 -0.698,-0.254 c -0.552,-0.205 -1.109,-0.393 -1.668,-0.578 -1.119,-0.364 -2.253,-0.678 -3.395,-0.953 -4.571,-1.103 -9.284,-1.477 -13.946,-1.18 -2.335,0.156 -4.664,0.475 -6.957,0.985 -1.146,0.252 -2.285,0.548 -3.411,0.887 -0.562,0.173 -1.123,0.352 -1.678,0.545 l -1.528,0.55 c -6.497,2.37 -13.862,2.671 -20.571,0.888 -1.766,-0.46 -3.793,0.647 -4.606,2.691 l -1.398,3.714 c -0.808,2.028 0.474,4.45 2.953,5.103 9.094,2.399 18.807,2.008 27.684,-1.204 l 1.356,-0.49 c 0.409,-0.142 0.822,-0.273 1.236,-0.402 0.831,-0.249 1.672,-0.468 2.521,-0.655 1.697,-0.378 3.428,-0.614 5.171,-0.732 3.492,-0.221 7.02,0.06 10.396,0.877 0.844,0.203 1.681,0.434 2.505,0.703 0.412,0.137 0.823,0.274 1.228,0.426 l 0.743,0.27 0.832,0.293 c 2.227,0.764 4.512,1.343 6.822,1.751 4.626,0.811 9.335,0.923 13.986,0.339 2.325,-0.29 4.633,-0.761 6.893,-1.407 1.131,-0.323 2.251,-0.687 3.353,-1.101 1.19,-0.445 2.303,-0.948 3.295,-1.42 1.983,-0.948 3.692,-1.842 5.211,-2.441 1.527,-0.63 2.796,-0.904 3.727,-0.916 0.93,0.012 2.2,0.286 3.727,0.916 1.518,0.599 3.227,1.493 5.21,2.441 0.992,0.472 2.105,0.975 3.295,1.42 1.103,0.414 2.223,0.778 3.353,1.101 2.261,0.646 4.568,1.117 6.893,1.407 4.651,0.584 9.36,0.472 13.986,-0.339 2.31,-0.408 4.595,-0.987 6.822,-1.751 l 0.833,-0.293 0.742,-0.27 c 0.405,-0.152 0.817,-0.289 1.228,-0.426 0.824,-0.269 1.661,-0.5 2.506,-0.703 3.376,-0.817 6.903,-1.098 10.395,-0.877 1.743,0.118 3.475,0.354 5.171,0.732 0.85,0.187 1.69,0.406 2.521,0.655 0.414,0.129 0.828,0.26 1.237,0.402 l 1.356,0.49 c 8.877,3.212 18.59,3.603 27.683,1.204 H 3.051 C 5.529,10.855 6.812,8.433 6.003,6.405 L 4.605,2.691 C 3.793,0.647 1.765,-0.46 0,0 m -145.822,112.203 c 0.203,1.354 0.801,2.603 1.729,3.617 0.741,0.809 1.745,1.297 2.828,1.373 11.64,0.82 30.797,1.647 47.357,1.647 16.559,0 35.717,-0.827 47.356,-1.647 1.083,-0.076 2.087,-0.564 2.827,-1.372 0.928,-1.013 1.525,-2.259 1.732,-3.633 0.27,-2.443 1.671,-16.531 2.114,-26.529 0.057,-1.284 -1.111,-2.277 -2.372,-2.025 l -50.02,10.004 c -1.087,0.216 -2.189,0.217 -3.278,-0.001 l -50.018,-10.003 c -1.261,-0.252 -2.429,0.739 -2.373,2.024 0.464,10.565 1.995,25.38 2.118,26.545 m 6.518,-90.383 c 0,0 0,0 0,0 l -0.003,0.009 0.005,-0.008 c 5.484,1.698 11.201,2.57 17.048,2.57 7,0 13.819,-1.232 20.268,-3.662 2.13,-0.802 4.028,-1.733 5.702,-2.555 0.702,-0.344 1.629,-0.799 2.375,-1.131 0.746,0.332 1.674,0.787 2.375,1.131 1.675,0.822 3.574,1.754 5.707,2.556 6.446,2.429 13.266,3.661 20.265,3.661 5.846,0 11.562,-0.872 17.047,-2.57 l 0.002,0.002 -0.001,-0.003 h 0.001 l 32.746,50.991 c 1.511,2.352 0.181,5.488 -2.561,6.036 l -5.072,1.014 c -0.018,0.004 -0.036,0.01 -0.054,0.013 l -3.533,0.707 -0.001,0.255 c -0.047,11.187 -2.341,32.907 -2.361,33.041 -0.547,3.955 -2.265,7.605 -4.966,10.557 -2.956,3.229 -6.984,5.176 -11.34,5.483 -7.025,0.495 -16.739,0.991 -26.993,1.314 v 8.671 c 0,2.348 -1.904,4.252 -4.252,4.252 h -12.191 v 25.142 c 0,1.769 -1.434,3.203 -3.203,3.203 h -3.231 c -1.769,0 -3.204,-1.434 -3.204,-3.203 v -25.142 h -12.188 c -2.348,0 -4.251,-1.904 -4.251,-4.252 v -8.671 c -10.255,-0.323 -19.969,-0.819 -26.993,-1.314 -4.357,-0.307 -8.384,-2.254 -11.34,-5.482 -2.7,-2.95 -4.418,-6.6 -4.969,-10.567 -0.023,-0.167 -2.311,-21.777 -2.358,-33.032 l -0.001,-0.254 -5.14,-1.028 c -0.003,-0.001 -0.005,-0.003 -0.008,-0.005 l -3.512,-0.702 c -2.742,-0.548 -4.072,-3.684 -2.561,-6.036 z" /></g><g
           transform="translate(283.4646,276.0899)"
           id="g24"><path
             id="path26"
             style="fill:#ffffff;fill-opacity:1;fill-rule:nonzero;stroke:none"
             d="m 0,0 v 0 c 0,4.07 -3.3,7.37 -7.37,7.37 h -268.724 c -4.071,0 -7.371,-3.3 -7.371,-7.37 v 0 c 0,-4.07 3.3,-7.37 7.371,-7.37 H -7.37 C -3.3,-7.37 0,-4.07 0,0" /></g><g
           transform="translate(283.4646,7.3655)"
           id="g28"><path
             id="path30"
             style="fill:#ffffff;fill-opacity:1;fill-rule:nonzero;stroke:none"
             d="m 0,0 v 0 c 0,4.07 -3.3,7.37 -7.37,7.37 h -268.724 c -4.071,0 -7.371,-3.3 -7.371,-7.37 v 0 c 0,-4.07 3.3,-7.37 7.371,-7.37 H -7.37 C -3.3,-7.37 0,-4.07 0,0" /></g></g></g></g></svg>