<?xml version="1.0" encoding="UTF-8" standalone="no"?>
<svg
   xmlnsDc="http://purl.org/dc/elements/1.1/"
   xmlnsCc="http://creativecommons.org/ns#"
   xmlnsRdf="http://www.w3.org/1999/02/22-rdf-syntax-ns#"
   xmlnsSvg="http://www.w3.org/2000/svg"
   xmlns="http://www.w3.org/2000/svg"
   viewBox="0 0 377.94666 377.94666"
   height="377.94666"
   width="377.94666"
   xmlSpace="preserve"
   id="svg2"
   version="1.1"><metadata
     id="metadata8"><rdfRDF><ccWork
         rdfAbout=""><dcFormat>image/svg+xml</dcFormat><dcType
           rdfResource="http://purl.org/dc/dcmitype/StillImage" /></ccWork></rdfRDF></metadata><defs
     id="defs6"><clipPath
       id="clipPath18"
       clipPathUnits="userSpaceOnUse"><path
         id="path16"
         d="M 0,283.46 H 283.46 V 0 H 0 Z" /></clipPath></defs><g
     transform="matrix(1.3333333,0,0,-1.3333333,0,377.94667)"
     id="g10"><g
       id="g12"><g
         clip-path="url(#clipPath18)"
         id="g14"><g
           transform="translate(141.7205,91.1358)"
           id="g20"><path
             id="path22"
             style="fill:#000000;fill-opacity:1;fill-rule:nonzero;stroke:none"
             d="m 0,0 c -4.736,0 -7.4,2.32 -9.472,6.38 l -38.104,75.984 h -0.354 l 10e-4,-96.712 c 0,-5.721 -5.42,-9.035 -10.24,-9.035 -5.421,0 -9.939,3.315 -9.939,9.036 v 127.972 c 0,5.67 3.261,11.622 13.046,11.622 7.412,0 10.569,-3.118 13.638,-9.355 L -0.165,28.835 h 0.354 l 41.235,87.057 c 3.069,6.237 6.225,9.355 13.638,9.355 9.785,0 13.046,-5.952 13.046,-11.622 V -14.347 c 0,-5.721 -4.517,-9.036 -9.939,-9.036 -4.82,0 -10.24,3.314 -10.24,9.035 L 47.93,82.364 H 47.575 L 9.472,6.38 C 7.4,2.32 4.736,0 0,0 m 0.012,-76.4 c -70.136,0 -126.992,56.856 -126.992,126.992 0,70.136 56.856,126.992 126.992,126.992 70.136,0 126.992,-56.856 126.992,-126.992 C 127.004,-19.544 70.148,-76.4 0.012,-76.4 m 0,268.724 c -78.277,0 -141.733,-63.455 -141.733,-141.732 0,-78.277 63.456,-141.732 141.733,-141.732 78.276,0 141.732,63.455 141.732,141.732 0,78.277 -63.456,141.732 -141.732,141.732" /></g></g></g></g></svg>