<?xml version="1.0" encoding="UTF-8" standalone="no"?>
<svg
   xmlnsDc="http://purl.org/dc/elements/1.1/"
   xmlnsCc="http://creativecommons.org/ns#"
   xmlnsRdf="http://www.w3.org/1999/02/22-rdf-syntax-ns#"
   xmlnsSvg="http://www.w3.org/2000/svg"
   xmlns="http://www.w3.org/2000/svg"
   viewBox="0 0 377.94666 377.94666"
   height="377.94666"
   width="377.94666"
   xmlSpace="preserve"
   id="svg2"
   version="1.1"><metadata
     id="metadata8"><rdfRDF><ccWork
         rdfAbout=""><dcFormat>image/svg+xml</dcFormat><dcType
           rdfResource="http://purl.org/dc/dcmitype/StillImage" /></ccWork></rdfRDF></metadata><defs
     id="defs6"><clipPath
       id="clipPath18"
       clipPathUnits="userSpaceOnUse"><path
         id="path16"
         d="M 0,283.46 H 283.46 V 0 H 0 Z" /></clipPath></defs><g
     transform="matrix(1.3333333,0,0,-1.3333333,0,377.94667)"
     id="g10"><g
       id="g12"><g
         clip-path="url(#clipPath18)"
         id="g14"><g
           transform="translate(68.7421,146.5431)"
           id="g20"><path
             id="path22"
             style="fill:#000000;fill-opacity:1;fill-rule:nonzero;stroke:none"
             d="m 0,0 c 9.056,0 19.63,4.399 19.63,16.795 0,9.704 -7.114,15.733 -18.566,15.733 H -8.039 V 0 Z m -23.349,-47.968 v 84.962 c 0,4.252 2.269,8.151 8.849,8.15 M 9.568,45.13 c 12.98,0 26.077,-8.36 26.077,-27.038 0,-12.107 -5.366,-21.027 -15.948,-26.511 -0.58,-0.265 -1.157,-0.503 -1.732,-0.731 l 17.031,-35.648 c 0.75,-1.501 0.684,-2.928 -0.203,-4.363 -1.556,-2.516 -5.465,-4.563 -8.716,-4.563 -2.456,0 -4.052,0.903 -5.021,2.841 L 4.007,-12.756 H -8.039 v -35.212 c 0,-2.871 -4.102,-5.675 -7.654,-5.675 -4.099,0 -7.656,2.804 -7.656,5.675 v 84.962 c 0,4.252 2.269,8.151 8.849,8.15 z" /></g><g
           transform="translate(205.8699,146.5431)"
           id="g24"><path
             id="path26"
             style="fill:#000000;fill-opacity:1;fill-rule:nonzero;stroke:none"
             d="m 0,0 c 9.056,0 19.63,4.399 19.63,16.795 0,9.704 -7.114,15.733 -18.567,15.733 H -8.039 L -8.039,0 Z m 9.568,45.13 c 12.98,0 26.077,-8.36 26.077,-27.038 0,-12.107 -5.366,-21.027 -15.948,-26.511 -0.58,-0.265 -1.157,-0.503 -1.732,-0.731 l 17.031,-35.648 c 0.75,-1.501 0.684,-2.928 -0.203,-4.363 -1.556,-2.516 -5.465,-4.563 -8.716,-4.563 -2.456,0 -4.052,0.903 -5.021,2.841 L 4.007,-12.756 H -8.039 v -35.212 c 0,-2.871 -4.102,-5.675 -7.654,-5.675 -4.099,0 -7.656,2.804 -7.656,5.675 v 84.962 c 0,4.252 2.269,8.151 8.849,8.15 z" /></g><g
           transform="translate(163.9872,93.1837)"
           id="g28"><path
             id="path30"
             style="fill:#000000;fill-opacity:1;fill-rule:nonzero;stroke:none"
             d="m 0,0 c 3.786,0 5.881,4.188 5.881,7.084 0,2.942 -1.825,7.087 -5.881,7.088 h -29.33 v 29.623 h 24.724 c 4.056,0 5.881,3.813 5.881,6.52 0,3.14 -1.84,6.519 -5.881,6.519 H -29.33 V 84.33 h 27.203 c 3.838,0 5.883,4.115 5.883,7.086 0,2.943 -1.825,7.087 -5.883,7.087 h -33.632 c -6.58,0.002 -8.848,-3.898 -8.848,-8.15 V 7.44 c 0,-5.455 4.577,-7.435 7.653,-7.435 z" /></g><g
           transform="translate(268.7244,63.775)"
           id="g32"><path
             id="path34"
             style="fill:#000000;fill-opacity:1;fill-rule:nonzero;stroke:none"
             d="m 0,0 v 155.906 c 0,27.083 -21.956,49.039 -49.039,49.039 h -155.906 c -27.084,0 -49.039,-21.956 -49.039,-49.039 V 0 c 0,-27.084 21.955,-49.039 49.039,-49.039 H -49.039 C -21.956,-49.039 0,-27.084 0,0 m -49.039,-63.78 h -155.906 c -35.224,0 -63.779,28.556 -63.779,63.78 v 155.906 c 0,35.224 28.555,63.779 63.779,63.779 h 155.906 c 35.224,0 63.779,-28.555 63.779,-63.779 L 14.74,0 c 0,-35.224 -28.555,-63.78 -63.779,-63.78" /></g></g></g></g></svg>