<?xml version="1.0" encoding="UTF-8" standalone="no"?>
<svg
   xmlnsDc="http://purl.org/dc/elements/1.1/"
   xmlnsCc="http://creativecommons.org/ns#"
   xmlnsRdf="http://www.w3.org/1999/02/22-rdf-syntax-ns#"
   xmlnsDvg="http://www.w3.org/2000/svg"
   xmlns="http://www.w3.org/2000/svg"
   viewBox="0 0 377.94666 377.94666"
   height="377.94666"
   width="377.94666"
   xmlSpace="preserve"
   id="svg2"
   version="1.1"><metadata
     id="metadata8"><rdfRDF><ccWork
         rdfAbout=""><dcFormat>text.html</dcFormat><dcType
           rdfResource="http://purl.org/dc/dcmitype/StillImage" /></ccWork></rdfRDF></metadata><defs
     id="defs6"><clipPath
       id="clipPath18"
       clipPathUnits="userSpaceOnUse"><path
         id="path16"
         d="M 0,283.46 H 283.46 V 0 H 0 Z" /></clipPath></defs><g
     transform="matrix(1.3333333,0,0,-1.3333333,0,377.94667)"
     id="g10"><g
       id="g12"><g
         clip-path="url(#clipPath18)"
         id="g14"><g
           transform="translate(283.4646,7.3655)"
           id="g20"><path
             id="path22"
             style="fill:#000000;fill-opacity:1;fill-rule:nonzero;stroke:none"
             d="m 0,0 v 0 c 0,4.07 -3.3,7.37 -7.37,7.37 h -268.724 c -4.071,0 -7.371,-3.3 -7.371,-7.37 v 0 c 0,-4.07 3.3,-7.37 7.371,-7.37 H -7.37 C -3.3,-7.37 0,-4.07 0,0 m 0,268.724 v 0 c 0,4.071 -3.3,7.37 -7.37,7.37 h -268.724 c -4.071,0 -7.371,-3.299 -7.371,-7.37 v 0 c 0,-4.07 3.3,-7.37 7.371,-7.37 H -7.37 c 4.07,0 7.37,3.3 7.37,7.37 m -62.875,-83.475 c -15.719,-0.274 -28.971,-11.133 -28.683,-27.623 0.226,-12.935 7.566,-21.01 18.376,-26.82 l 8.348,-4.523 c 5.794,-3.191 9.859,-6.681 9.977,-13.385 0.155,-8.885 -7.359,-13.903 -15.429,-14.043 -5.236,-0.092 -11.336,1.793 -14.717,3.299 -4.39,1.915 -6.486,-0.76 -7.854,-5.34 -1.369,-4.863 0.986,-6.812 4.788,-8.452 4.238,-2.007 11.676,-3.555 18.314,-3.44 16.308,0.285 29.582,11.151 29.28,28.437 -0.238,13.629 -7.919,21.829 -17.816,27.082 l -8.072,4.27 c -5.609,2.985 -10.214,7.567 -10.324,13.876 -0.14,8.03 5.631,13.83 13.762,13.972 4.878,0.085 9.396,-1.701 12.811,-3.328 4.002,-1.875 6.425,0.707 7.487,4.892 1.335,4.747 -0.677,6.379 -4.107,7.986 -4.239,2.007 -10.179,3.244 -16.141,3.14 m -160.526,-43.37 v 28.415 h 9.248 c 11.447,0 18.952,-5.046 18.952,-14.208 0,-8.896 -7.837,-14.207 -18.952,-14.207 z m 29.835,-4.323 v 0.354 c 6.654,3.594 14.587,10.39 14.587,22.355 0,16.532 -13.57,24.063 -28.789,24.062 h -22.092 c -6.58,0.001 -8.849,-3.899 -8.849,-8.151 v -82.91 c 0,-4.961 3.969,-7.442 10.064,-7.442 h 21.328 c 27.936,0 29.912,21.844 29.912,28.538 0,19.969 -15.493,23.068 -16.161,23.196 m -17.261,-6.451 c 11.66,0 18.621,-5.768 18.621,-15.431 0,-10.709 -6.265,-16.139 -18.621,-16.139 h -11.725 v 31.57 z m 92.568,-10.205 v 57.826 c 0,2.977 3.686,5.884 7.655,5.884 3.683,0 7.653,-2.907 7.653,-5.884 v -60.306 c 0,-22.675 -10.34,-33.447 -30.278,-33.447 -22.063,0 -31.569,10.415 -31.569,33.801 v 59.952 c 0,2.977 3.688,5.884 7.938,5.884 3.683,0 7.936,-2.907 7.936,-5.884 v -57.826 c 0,-18.598 9.528,-22.039 15.695,-22.039 7.221,0 14.97,4.41 14.97,22.039" /></g></g></g></g></svg>