<?xml version="1.0" encoding="UTF-8" standalone="no"?>
<svg
   xmlnsDc="http://purl.org/dc/elements/1.1/"
   xmlnsCc="http://creativecommons.org/ns#"
   xmlnsRdf="http://www.w3.org/1999/02/22-rdf-syntax-ns#"
   xmlnsSvg="http://www.w3.org/2000/svg"
   xmlns="http://www.w3.org/2000/svg"
   viewBox="0 0 377.94666 377.94666"
   height="377.94666"
   width="377.94666"
   xmlSpace="preserve"
   id="svg2"
   version="1.1"><metadata
     id="metadata8"><rdfRDF><ccWork
         rdfAbout=""><dcFormat>image/svg+xml</dcFormat><dcType
           rdfResource="http://purl.org/dc/dcmitype/StillImage" /></ccWork></rdfRDF></metadata><defs
     id="defs6"><clipPath
       id="clipPath18"
       clipPathUnits="userSpaceOnUse"><path
         id="path16"
         d="M 0,283.46 H 283.46 V 0 H 0 Z" /></clipPath></defs><g
     transform="matrix(1.3333333,0,0,-1.3333333,0,377.94667)"
     id="g10"><g
       id="g12"><g
         clip-path="url(#clipPath18)"
         id="g14"><g
           transform="translate(100.6972,62.5627)"
           id="g20"><path
             id="path22"
             style="fill:#000000;fill-opacity:1;fill-rule:nonzero;stroke:none"
             d="m 0,0 10.127,11.253 c 4.935,-1.137 9.483,-1.137 12.798,-1.137 h 35.817 c 3.306,0 7.854,0 12.79,1.137 L 81.663,0 Z m -1.915,36.898 c 0,5.203 4.226,9.426 9.448,9.426 5.231,0 9.439,-4.223 9.439,-9.426 0,-5.225 -4.208,-9.447 -9.439,-9.447 -5.222,0 -9.448,4.222 -9.448,9.447 m -9.621,51.103 c -5.771,0 3.294,50.657 7.432,50.657 h 88.847 c 4.492,0 15.028,-50.657 7.969,-50.657 z m 85.478,-60.55 c -5.217,0 -9.456,4.222 -9.456,9.447 0,5.203 4.239,9.426 9.456,9.426 5.231,0 9.453,-4.223 9.453,-9.426 0,-5.225 -4.222,-9.447 -9.453,-9.447 m 9.23,-11.152 c 0.623,0.424 1.224,0.858 1.667,1.293 5.097,4.122 9.857,10.449 13.313,20.242 4.827,13.737 8.238,26.026 9.183,41.121 1.305,18.605 -6.354,47.537 -11.433,61.04 l -1.767,4.757 c -1.092,3.031 -5.257,9.47 -12.655,17.179 -6.353,6.618 -12.469,7.108 -21.768,7.108 H 21.955 c -9.3,0 -15.405,-0.49 -21.777,-7.108 -7.397,-7.687 -11.563,-14.148 -12.646,-17.179 l -1.775,-4.779 c -5.08,-13.481 -12.734,-42.413 -11.442,-61.041 0.94,-15.062 4.36,-27.317 9.209,-41.098 3.447,-9.815 8.194,-16.12 13.295,-20.242 0.483,-0.424 1.058,-0.847 1.693,-1.271 L -28.992,-14.26 c -2.237,-2.496 -2.237,-6.529 0,-9.001 2.233,-2.474 5.849,-2.474 8.069,0 l 9.499,10.539 H 93.103 l 9.479,-10.539 c 2.215,-2.474 5.844,-2.474 8.068,0 2.237,2.472 2.237,6.505 0,9.001 z" /></g><g
           transform="translate(268.7244,63.775)"
           id="g24"><path
             id="path26"
             style="fill:#000000;fill-opacity:1;fill-rule:nonzero;stroke:none"
             d="m 0,0 v 155.906 c 0,27.083 -21.956,49.039 -49.039,49.039 h -155.906 c -27.084,0 -49.039,-21.956 -49.039,-49.039 V 0 c 0,-27.084 21.955,-49.039 49.039,-49.039 H -49.039 C -21.956,-49.039 0,-27.084 0,0 m -49.039,-63.78 h -155.906 c -35.224,0 -63.779,28.556 -63.779,63.78 v 155.906 c 0,35.224 28.555,63.779 63.779,63.779 h 155.906 c 35.224,0 63.779,-28.555 63.779,-63.779 L 14.74,0 c 0,-35.224 -28.555,-63.78 -63.779,-63.78" /></g></g></g></g></svg>