<?xml version="1.0" encoding="UTF-8" standalone="no"?>
<svg
   xmlnsDc="http://purl.org/dc/elements/1.1/"
   xmlnsCc="http://creativecommons.org/ns#"
   xmlnsRdf="http://www.w3.org/1999/02/22-rdf-syntax-ns#"
   xmlnsSvg="http://www.w3.org/2000/svg"
   xmlns="http://www.w3.org/2000/svg"
   viewBox="0 0 377.94666 377.94666"
   height="377.94666"
   width="377.94666"
   xmlSpace="preserve"
   id="svg2"
   version="1.1"><metadata
     id="metadata8"><rdfRDF><ccWork
         rdfAbout=""><dcFormat>text/html</dcFormat><dcType
           rdfResource="http://purl.org/dc/dcmitype/StillImage" /></ccWork></rdfRDF></metadata><defs
     id="defs6"><clipPath
       id="clipPath18"
       clipPathUnits="userSpaceOnUse"><path
         id="path16"
         d="M 0,283.46 H 283.46 V 0 H 0 Z" /></clipPath></defs><g
     transform="matrix(1.3333333,0,0,-1.3333333,0,377.94667)"
     id="g10"><g
       id="g12"><g
         clip-path="url(#clipPath18)"
         id="g14"><g
           transform="translate(276.0945,268.7198)"
           id="g20"><path
             id="path22"
             style="fill:#ffffff;fill-opacity:1;fill-rule:nonzero;stroke:none"
             d="m 0,0 h -268.724 c -4.071,0 -7.371,3.3 -7.371,7.37 v 0 c 0,4.07 3.3,7.37 7.371,7.37 H 0 c 4.07,0 7.37,-3.3 7.37,-7.37 v 0 C 7.37,3.3 4.07,0 0,0" /></g><g
           transform="translate(276.0945,-0.0046)"
           id="g24"><path
             id="path26"
             style="fill:#ffffff;fill-opacity:1;fill-rule:nonzero;stroke:none"
             d="m 0,0 h -268.724 c -4.071,0 -7.37,3.3 -7.37,7.37 v 0 c 0,4.07 3.299,7.37 7.37,7.37 H 0 c 4.07,0 7.37,-3.3 7.37,-7.37 v 0 C 7.37,3.3 4.07,0 0,0" /></g><g
           transform="translate(251.1494,47.6188)"
           id="g28"><path
             id="path30"
             style="fill:#ffffff;fill-opacity:1;fill-rule:nonzero;stroke:none"
             d="M 0,0 H -222.803 V 11.905 H 0 c 2.191,0 3.969,-1.777 3.969,-3.968 V 3.968 C 3.969,1.776 2.191,0 0,0" /></g><g
           transform="translate(86.3145,171.4909)"
           id="g32"><path
             id="path34"
             style="fill:#ffffff;fill-opacity:1;fill-rule:nonzero;stroke:none"
             d="m 0,0 h 25.796 c 1.096,0 1.984,-0.889 1.984,-1.984 V -85.89 c 0,-1.095 -0.888,-1.984 -1.984,-1.984 H 0 c -1.096,0 -1.984,0.889 -1.984,1.984 V -1.984 C -1.984,-0.889 -1.096,0 0,0 M 68.315,-87.874 H 42.521 c -1.096,0 -1.985,0.889 -1.985,1.984 V -1.984 C 40.536,-0.889 41.425,0 42.521,0 H 68.315 C 69.411,0 70.3,-0.889 70.3,-1.984 V -85.89 c 0,-1.095 -0.889,-1.984 -1.985,-1.984 m 62.199,83.12 c 11.03,-12.022 18.841,-26.332 22.941,-41.892 1.769,-6.709 -2.362,-12.173 -9.302,-12.173 H 85.04 c -1.096,0 -1.984,0.888 -1.984,1.984 V -1.984 C 83.056,-0.889 83.944,0 85.04,0 h 34.569 c 4.137,0 8.108,-1.705 10.905,-4.754 M -57.968,-100.63 h 185.7 c 16.075,0 30.461,8.971 37.546,23.412 3.07,6.256 4.164,13.365 3.167,20.561 -3.137,22.618 -12.96,43.499 -28.406,60.389 -5.247,5.738 -12.654,9.024 -20.43,9.024 H 21.584 l 20.574,16.909 c 2.415,1.984 2.414,5.681 -0.001,7.665 L 6.018,67.021 C 4.647,68.148 2.623,67.95 1.496,66.579 l -2.04,-2.483 C -1.67,62.725 -1.472,60.701 -0.101,59.574 L 31.642,33.497 6.405,12.756 H -57.968 V 0 h 41.243 c 1.096,0 1.985,-0.889 1.985,-1.984 v -54.851 c 0,-1.096 -0.889,-1.984 -1.985,-1.984 h -41.243 z" /></g></g></g></g></svg>